<?xml version="1.0" encoding="utf-8"?>
<!-- Generator: Adobe Illustrator 19.0.0, SVG Export Plug-In . SVG Version: 6.00 Build 0)  -->
<svg version="1.1" id="Layer_1" xmlns="http://www.w3.org/2000/svg" xmlns:xlink="http://www.w3.org/1999/xlink" x="0px" y="0px"
	 viewBox="-451 260 56.1 42" style="enable-background:new -451 260 56.1 42;" xml:space="preserve">
<g id="XMLID_80_">
	<path id="XMLID_81_" d="M-451,260h56v42h-56V260z M-431.4,281l-17.6-17.6v35.3L-431.4,281z M-447.6,262l23.7,23.1
		c0.3,0.3,0.6,0.4,1,0.4s0.7-0.1,1-0.4l23.6-23.1H-447.6z M-415.9,282.2l-5,4.9c-0.6,0.6-1.2,0.8-2,0.8c-0.8,0-1.4-0.3-2-0.8l-5-4.8
		l-17.7,17.8h49.3L-415.9,282.2z M-414.6,281l17.6,17.6v-35.2L-414.6,281z"/>
</g>
</svg>
